<?xml version="1.0" encoding="UTF-8"?>
<svg xmlns="http://www.w3.org/2000/svg" width="1024" height="1024" viewBox="0 0 1024 1024" role="img" aria-label="Wiki Scroll glitch W app icon">
  <defs>
    <linearGradient id="bg" x1="0" y1="0" x2="1" y2="1">
      <stop offset="0%" stop-color="#050505"/>
      <stop offset="100%" stop-color="#111111"/>
    </linearGradient>
    <clipPath id="icon-mask">
      <rect x="0" y="0" width="1024" height="1024" rx="220" ry="220"/>
    </clipPath>
    <filter id="soft-glow" x="-15%" y="-15%" width="130%" height="130%">
      <feGaussianBlur stdDeviation="2.2" result="blur"/>
      <feMerge>
        <feMergeNode in="blur"/>
        <feMergeNode in="SourceGraphic"/>
      </feMerge>
    </filter>
  </defs>

  <g clip-path="url(#icon-mask)">
    <rect x="0" y="0" width="1024" height="1024" rx="220" ry="220" fill="url(#bg)"/>
    <path d="M 102.00 263.68 L 102.00 277.20 L 106.51 286.21 L 123.03 287.71 L 139.55 293.72 L 148.56 301.23 L 157.57 314.75 L 198.12 404.86 L 201.12 415.37 L 271.71 577.57 L 274.71 588.08 L 306.25 658.67 L 354.31 774.31 L 363.32 783.32 L 373.83 783.32 L 382.84 775.81 L 484.97 573.06 L 505.99 535.52 L 609.62 754.78 L 617.13 774.31 L 626.14 783.32 L 636.65 783.32 L 641.16 780.32 L 647.16 772.81 L 855.92 323.76 L 863.43 313.25 L 881.45 296.73 L 893.47 290.72 L 917.49 286.21 L 920.50 281.71 L 919.00 259.18 L 861.93 259.18 L 860.42 260.68 L 768.81 259.18 L 765.81 268.19 L 765.81 277.20 L 768.81 284.71 L 795.85 290.72 L 809.36 299.73 L 815.37 313.25 L 813.87 331.27 L 801.85 361.30 L 791.34 380.83 L 653.17 681.19 L 648.67 682.70 L 545.04 470.94 L 606.62 353.79 L 626.14 322.26 L 648.67 298.23 L 669.69 287.71 L 675.70 287.71 L 683.21 284.71 L 686.21 277.20 L 686.21 268.19 L 683.21 259.18 L 639.66 259.18 L 638.15 260.68 L 561.56 259.18 L 560.06 260.68 L 558.56 280.21 L 561.56 286.21 L 567.57 286.21 L 578.08 290.72 L 585.59 299.73 L 587.09 311.74 L 581.08 331.27 L 525.52 434.89 L 521.01 430.39 L 478.96 344.78 L 465.44 310.24 L 466.95 296.73 L 472.95 290.72 L 489.47 286.21 L 492.48 283.21 L 493.98 263.68 L 490.97 259.18 L 433.90 259.18 L 432.40 260.68 L 348.30 259.18 L 345.30 263.68 L 345.30 280.21 L 348.30 286.21 L 361.82 287.71 L 375.33 293.72 L 384.34 301.23 L 394.86 316.25 L 423.39 371.82 L 423.39 374.82 L 483.47 499.47 L 459.44 552.04 L 394.86 681.19 L 390.35 682.70 L 244.67 355.30 L 232.66 323.76 L 231.16 314.75 L 232.66 302.73 L 240.17 295.22 L 253.68 289.22 L 276.21 286.21 L 279.22 274.20 L 276.21 259.18 L 207.13 259.18 L 205.63 260.68 L 105.00 259.18 Z" fill="#16F4EE" transform="translate(-18 -14)" opacity="0.98" filter="url(#soft-glow)"/>
    <path d="M 102.00 263.68 L 102.00 277.20 L 106.51 286.21 L 123.03 287.71 L 139.55 293.72 L 148.56 301.23 L 157.57 314.75 L 198.12 404.86 L 201.12 415.37 L 271.71 577.57 L 274.71 588.08 L 306.25 658.67 L 354.31 774.31 L 363.32 783.32 L 373.83 783.32 L 382.84 775.81 L 484.97 573.06 L 505.99 535.52 L 609.62 754.78 L 617.13 774.31 L 626.14 783.32 L 636.65 783.32 L 641.16 780.32 L 647.16 772.81 L 855.92 323.76 L 863.43 313.25 L 881.45 296.73 L 893.47 290.72 L 917.49 286.21 L 920.50 281.71 L 919.00 259.18 L 861.93 259.18 L 860.42 260.68 L 768.81 259.18 L 765.81 268.19 L 765.81 277.20 L 768.81 284.71 L 795.85 290.72 L 809.36 299.73 L 815.37 313.25 L 813.87 331.27 L 801.85 361.30 L 791.34 380.83 L 653.17 681.19 L 648.67 682.70 L 545.04 470.94 L 606.62 353.79 L 626.14 322.26 L 648.67 298.23 L 669.69 287.71 L 675.70 287.71 L 683.21 284.71 L 686.21 277.20 L 686.21 268.19 L 683.21 259.18 L 639.66 259.18 L 638.15 260.68 L 561.56 259.18 L 560.06 260.68 L 558.56 280.21 L 561.56 286.21 L 567.57 286.21 L 578.08 290.72 L 585.59 299.73 L 587.09 311.74 L 581.08 331.27 L 525.52 434.89 L 521.01 430.39 L 478.96 344.78 L 465.44 310.24 L 466.95 296.73 L 472.95 290.72 L 489.47 286.21 L 492.48 283.21 L 493.98 263.68 L 490.97 259.18 L 433.90 259.18 L 432.40 260.68 L 348.30 259.18 L 345.30 263.68 L 345.30 280.21 L 348.30 286.21 L 361.82 287.71 L 375.33 293.72 L 384.34 301.23 L 394.86 316.25 L 423.39 371.82 L 423.39 374.82 L 483.47 499.47 L 459.44 552.04 L 394.86 681.19 L 390.35 682.70 L 244.67 355.30 L 232.66 323.76 L 231.16 314.75 L 232.66 302.73 L 240.17 295.22 L 253.68 289.22 L 276.21 286.21 L 279.22 274.20 L 276.21 259.18 L 207.13 259.18 L 205.63 260.68 L 105.00 259.18 Z" fill="#FF285C" transform="translate(18 16)" opacity="0.98" filter="url(#soft-glow)"/>
    <path d="M 102.00 263.68 L 102.00 277.20 L 106.51 286.21 L 123.03 287.71 L 139.55 293.72 L 148.56 301.23 L 157.57 314.75 L 198.12 404.86 L 201.12 415.37 L 271.71 577.57 L 274.71 588.08 L 306.25 658.67 L 354.31 774.31 L 363.32 783.32 L 373.83 783.32 L 382.84 775.81 L 484.97 573.06 L 505.99 535.52 L 609.62 754.78 L 617.13 774.31 L 626.14 783.32 L 636.65 783.32 L 641.16 780.32 L 647.16 772.81 L 855.92 323.76 L 863.43 313.25 L 881.45 296.73 L 893.47 290.72 L 917.49 286.21 L 920.50 281.71 L 919.00 259.18 L 861.93 259.18 L 860.42 260.68 L 768.81 259.18 L 765.81 268.19 L 765.81 277.20 L 768.81 284.71 L 795.85 290.72 L 809.36 299.73 L 815.37 313.25 L 813.87 331.27 L 801.85 361.30 L 791.34 380.83 L 653.17 681.19 L 648.67 682.70 L 545.04 470.94 L 606.62 353.79 L 626.14 322.26 L 648.67 298.23 L 669.69 287.71 L 675.70 287.71 L 683.21 284.71 L 686.21 277.20 L 686.21 268.19 L 683.21 259.18 L 639.66 259.18 L 638.15 260.68 L 561.56 259.18 L 560.06 260.68 L 558.56 280.21 L 561.56 286.21 L 567.57 286.21 L 578.08 290.72 L 585.59 299.73 L 587.09 311.74 L 581.08 331.27 L 525.52 434.89 L 521.01 430.39 L 478.96 344.78 L 465.44 310.24 L 466.95 296.73 L 472.95 290.72 L 489.47 286.21 L 492.48 283.21 L 493.98 263.68 L 490.97 259.18 L 433.90 259.18 L 432.40 260.68 L 348.30 259.18 L 345.30 263.68 L 345.30 280.21 L 348.30 286.21 L 361.82 287.71 L 375.33 293.72 L 384.34 301.23 L 394.86 316.25 L 423.39 371.82 L 423.39 374.82 L 483.47 499.47 L 459.44 552.04 L 394.86 681.19 L 390.35 682.70 L 244.67 355.30 L 232.66 323.76 L 231.16 314.75 L 232.66 302.73 L 240.17 295.22 L 253.68 289.22 L 276.21 286.21 L 279.22 274.20 L 276.21 259.18 L 207.13 259.18 L 205.63 260.68 L 105.00 259.18 Z" fill="#FFFFFF"/>
    <rect x="1.5" y="1.5" width="1021" height="1021" rx="218.5" ry="218.5" fill="none" stroke="#2A2A2A" stroke-width="3" opacity="0.8"/>
  </g>
</svg>
